<svg xmlns="http://www.w3.org/2000/svg" width="88" height="55" xmlns:xlink="http://www.w3.org/1999/xlink">
  <defs>
    <path id="a" d="M0.3 14.9L11.7 14.9 11.7 0.9 0.3 0.9 0.3 14.9z"/>
    <path id="c" d="M13.6 11.9L0.9 11.9 0.9 0.6 13.6 0.6z"/>
  </defs>
  <g fill="none" fill-rule="evenodd">
    <path fill="#5F5F5C" d="M.1 51.7L2.1 51.7 2.1 40.9.1 40.9M5.829 43.75L5.829 48.561C5.829 49.017 5.882 49.358 5.989 49.587 6.178 49.993 6.55 50.195 7.104 50.195 7.813 50.195 8.299 49.907 8.562 49.331 8.698 49.019 8.766 48.606 8.766 48.093L8.766 43.75 10.882 43.75 10.882 51.733 8.854 51.733 8.854 50.605C8.834 50.63 8.785 50.703 8.708 50.825 8.629 50.947 8.537 51.055 8.43 51.147 8.104 51.44 7.789 51.641 7.484 51.748 7.18 51.855 6.823 51.909 6.414 51.909 5.236 51.909 4.442 51.484 4.033 50.635 3.804 50.166 3.69 49.476 3.69 48.561L3.69 43.75 5.829 43.75M18.974 44.208C19.497 44.64 19.758 45.356 19.758 46.357L19.758 51.733 17.619 51.733 17.619 46.878C17.619 46.458 17.564 46.136 17.452 45.911 17.248 45.501 16.86 45.296 16.289 45.296 15.586 45.296 15.104 45.596 14.842 46.196 14.706 46.514 14.638 46.919 14.638 47.412L14.638 51.733 12.551 51.733 12.551 43.765 14.572 43.765 14.572 44.929C14.839 44.519 15.092 44.224 15.331 44.043 15.759 43.721 16.301 43.56 16.957 43.56 17.779 43.56 18.451 43.775 18.974 44.208M25.763 47.852C25.628 47.935 25.493 48.002 25.357 48.053 25.222 48.104 25.034 48.151 24.797 48.196L24.321 48.284C23.876 48.362 23.557 48.457 23.362 48.569 23.034 48.76 22.869 49.056 22.869 49.456 22.869 49.811 22.97 50.069 23.171 50.228 23.371 50.388 23.615 50.466 23.903 50.466 24.358 50.466 24.779 50.335 25.163 50.071 25.548 49.808 25.747 49.326 25.763 48.628L25.763 47.852zM24.485 46.878C24.874 46.829 25.152 46.768 25.319 46.694 25.62 46.567 25.77 46.37 25.77 46.101 25.77 45.774 25.654 45.548 25.425 45.424 25.194 45.299 24.856 45.237 24.411 45.237 23.911 45.237 23.558 45.358 23.349 45.603 23.2 45.784 23.102 46.028 23.052 46.335L21.038 46.335C21.082 45.638 21.278 45.063 21.627 44.614 22.181 43.911 23.132 43.56 24.481 43.56 25.358 43.56 26.138 43.733 26.819 44.079 27.501 44.427 27.843 45.081 27.843 46.042L27.843 49.704C27.843 49.958 27.847 50.267 27.856 50.628 27.872 50.901 27.913 51.087 27.981 51.185 28.05 51.282 28.152 51.362 28.289 51.426L28.289 51.733 26.019 51.733C25.955 51.572 25.911 51.421 25.887 51.279 25.862 51.138 25.843 50.977 25.828 50.796 25.538 51.108 25.204 51.374 24.826 51.595 24.374 51.853 23.863 51.982 23.294 51.982 22.567 51.982 21.966 51.776 21.493 51.363 21.019 50.951 20.782 50.366 20.782 49.609 20.782 48.628 21.163 47.917 21.925 47.478 22.344 47.239 22.959 47.067 23.771 46.966L24.485 46.878 24.485 46.878zM33.726 43.563C33.753 43.565 33.812 43.569 33.905 43.574L33.905 45.713C33.773 45.698 33.656 45.688 33.554 45.684 33.451 45.679 33.368 45.677 33.305 45.677 32.465 45.677 31.901 45.95 31.612 46.497 31.452 46.804 31.371 47.278 31.371 47.917L31.371 51.733 29.269 51.733 29.269 43.75 31.261 43.75 31.261 45.142C31.583 44.609 31.864 44.245 32.104 44.05 32.494 43.724 33.002 43.56 33.627 43.56 33.666 43.56 33.698 43.562 33.726 43.563"/>
    <g transform="translate(34 40)">
      <mask id="b" fill="#fff">
        <use xlink:href="#a"/>
      </mask>
      <path fill="#5F5F5C" d="M5.741 9.603C6.068 9.169 6.231 8.552 6.231 7.753 6.231 6.953 6.068 6.337 5.741 5.906 5.414 5.475 4.945 5.259 4.335 5.259 3.725 5.259 3.255 5.475 2.925 5.906 2.596 6.337 2.431 6.953 2.431 7.753 2.431 8.552 2.596 9.169 2.925 9.603 3.255 10.037 3.725 10.254 4.335 10.254 4.945 10.254 5.414 10.037 5.741 9.603zM7.411 10.757C6.737 11.589 5.714 12.005 4.343 12.005 2.97 12.005 1.947 11.589 1.273 10.757.6 9.925.263 8.924.263 7.753.263 6.602.6 5.604 1.273 4.76 1.947 3.915 2.97 3.493 4.343 3.493 5.714 3.493 6.737 3.915 7.411 4.76 8.085 5.604 8.422 6.602 8.422 7.753 8.422 8.924 8.085 9.925 7.411 10.757L7.411 10.757zM9.636 2.798L11.724 2.798 11.724.872 9.636.872 9.636 2.798zM8.633 13.265C8.75 13.274 8.833 13.28 8.882 13.282 8.931 13.284 8.975 13.286 9.014 13.286 9.219 13.286 9.374 13.235 9.48 13.136 9.583 13.036 9.636 12.842 9.636 12.554L9.636 3.786 11.724 3.786 11.724 12.591C11.724 13.395 11.565 13.991 11.247 14.378 10.931 14.763 10.308 14.956 9.38 14.956 9.316 14.956 9.222 14.954 9.099 14.948 8.974 14.944 8.818 14.938 8.633 14.935L8.633 13.265 8.633 13.265z" mask="url(#b)"/>
    </g>
    <path fill="#5F5F5C" d="M51.772 47.852C51.638 47.935 51.503 48.002 51.367 48.053 51.231 48.104 51.044 48.151 50.807 48.196L50.331 48.284C49.886 48.362 49.566 48.457 49.372 48.569 49.044 48.76 48.879 49.056 48.879 49.456 48.879 49.811 48.979 50.069 49.181 50.228 49.381 50.388 49.625 50.466 49.913 50.466 50.368 50.466 50.789 50.335 51.173 50.071 51.558 49.808 51.757 49.326 51.772 48.628L51.772 47.852zM50.495 46.878C50.884 46.829 51.162 46.768 51.329 46.694 51.63 46.567 51.779 46.37 51.779 46.101 51.779 45.774 51.664 45.548 51.435 45.424 51.204 45.299 50.866 45.237 50.421 45.237 49.921 45.237 49.567 45.358 49.358 45.603 49.21 45.784 49.111 46.028 49.062 46.335L47.048 46.335C47.092 45.638 47.288 45.063 47.636 44.614 48.19 43.911 49.142 43.56 50.49 43.56 51.368 43.56 52.147 43.733 52.829 44.079 53.511 44.427 53.853 45.081 53.853 46.042L53.853 49.704C53.853 49.958 53.856 50.267 53.866 50.628 53.882 50.901 53.923 51.087 53.991 51.185 54.06 51.282 54.162 51.362 54.299 51.426L54.299 51.733 52.028 51.733C51.965 51.572 51.921 51.421 51.897 51.279 51.872 51.138 51.853 50.977 51.838 50.796 51.548 51.108 51.214 51.374 50.836 51.595 50.384 51.853 49.873 51.982 49.304 51.982 48.577 51.982 47.976 51.776 47.503 51.363 47.028 50.951 46.792 50.366 46.792 49.609 46.792 48.628 47.173 47.917 47.935 47.478 48.354 47.239 48.968 47.067 49.78 46.966L50.495 46.878 50.495 46.878zM55.3 51.7L57.5 51.7 57.5 49.5 55.3 49.5M64.081 49.603C64.408 49.169 64.571 48.552 64.571 47.753 64.571 46.953 64.408 46.337 64.081 45.906 63.754 45.475 63.285 45.259 62.675 45.259 62.065 45.259 61.595 45.475 61.265 45.906 60.936 46.337 60.771 46.953 60.771 47.753 60.771 48.552 60.936 49.169 61.265 49.603 61.595 50.037 62.065 50.254 62.675 50.254 63.285 50.254 63.754 50.037 64.081 49.603zM65.751 50.757C65.077 51.589 64.054 52.005 62.683 52.005 61.31 52.005 60.287 51.589 59.613 50.757 58.939 49.925 58.603 48.924 58.603 47.753 58.603 46.602 58.939 45.604 59.613 44.76 60.287 43.915 61.31 43.493 62.683 43.493 64.054 43.493 65.077 43.915 65.751 44.76 66.425 45.604 66.762 46.602 66.762 47.753 66.762 48.924 66.425 49.925 65.751 50.757L65.751 50.757z"/>
    <g transform="translate(67 43)">
      <mask id="d" fill="#fff">
        <use xlink:href="#c"/>
      </mask>
      <path fill="#5F5F5C" d="M5.315.563C5.343.565 5.402.569 5.495.574L5.495 2.713C5.363 2.698 5.246 2.688 5.144 2.684 5.041 2.679 4.958 2.677 4.895 2.677 4.055 2.677 3.491 2.95 3.202 3.497 3.042 3.804 2.961 4.278 2.961 4.917L2.961 8.733.858 8.733.858.75 2.851.75 2.851 2.142C3.173 1.609 3.454 1.245 3.693 1.05 4.084.724 4.592.56 5.217.56 5.256.56 5.288.562 5.315.563M11.003 6.467C11.339 6.099 11.507 5.511 11.507 4.705 11.507 3.948 11.348 3.372 11.028 2.977 10.71 2.581 10.284 2.384 9.749 2.384 9.02 2.384 8.517 2.728 8.239 3.416 8.093 3.782 8.021 4.233 8.021 4.77 8.021 5.235 8.099 5.647 8.254 6.009 8.536 6.683 9.042 7.019 9.771 7.019 10.257 7.019 10.668 6.835 11.003 6.467zM10.292.743C10.8.952 11.21 1.339 11.521 1.899L11.521.75 13.558.75 13.558 8.323C13.558 9.354 13.384 10.13 13.038 10.652 12.442 11.551 11.3 12 9.61 12 8.589 12 7.757 11.8 7.112 11.399 6.468 10.999 6.111 10.401 6.043 9.604L8.314 9.604C8.372 9.849 8.468 10.024 8.599 10.132 8.823 10.323 9.202 10.418 9.734 10.418 10.486 10.418 10.989 10.167 11.243 9.663 11.409 9.341 11.492 8.8 11.492 8.038L11.492 7.524C11.292 7.866 11.077 8.123 10.848 8.294 10.433 8.611 9.894 8.771 9.229 8.771 8.204 8.771 7.384 8.41 6.771 7.689 6.159 6.97 5.853 5.994 5.853 4.764 5.853 3.577 6.147 2.58 6.737 1.771 7.327.964 8.164.56 9.247.56 9.646.56 9.995.62 10.292.743L10.292.743z" mask="url(#d)"/>
    </g>
    <path fill="#AA2C31" d="M69.672,31.167 C62.507,31.167 56.699,25.347 56.699,18.166 C56.699,10.987 62.507,5.166 69.672,5.166 C71.078,5.166 72.431,5.394 73.7,5.808 C73.078,7.828 71.049,8.534 67.414,8.534 C74.615,8.534 73.714,11.3 63.164,21.57 C73.714,11.3 76.555,10.699 76.555,18.742 C76.555,13.667 77.687,11.559 81.172,12.151 C82.109,13.949 82.643,15.995 82.643,18.166 C82.643,25.347 76.835,31.167 69.672,31.167 M69.672,0.242 C59.791,0.242 51.785,8.268 51.785,18.166 C51.785,28.065 59.791,36.091 69.672,36.091 C79.551,36.091 87.557,28.065 87.557,18.166 C87.557,8.268 79.551,0.242 69.672,0.242"/>
  </g>
</svg>
