<svg xmlns="http://www.w3.org/2000/svg" width="88" height="55" xmlns:xlink="http://www.w3.org/1999/xlink">
  <defs>
    <path id="a" d="M.3 15h11.4V1H.3v14z"/>
    <path id="c" d="M13.6 12H1V.5h12.6z"/>
  </defs>
  <g fill="none" fill-rule="evenodd">
    <path fill="#5F5F5C" d="M0 51.7h2V41H0M5.8 43.8v4.8c0 .4 0 .8.2 1 .2.4.5.6 1 .6.8 0 1.3-.3 1.6-1l.2-1v-4.5h2v8H9v-1l-.4.4c-.3.4-.6.6-1 .7-.2.2-.6.2-1 .2-1.2 0-2-.5-2.4-1.4-.2-.4-.3-1-.3-2v-5h2M19 44.2c.5.4.8 1.2.8 2.2v5.3h-2.2V47v-1c-.4-.5-.7-.7-1.3-.7-.7 0-1.2.3-1.5 1l-.2 1v4.4h-2v-8h2V45c.2-.5.5-.8.7-1 .5-.3 1-.4 1.7-.4.8 0 1.5.2 2 .6M25.8 48h-.4l-.6.2h-.5l-1 .4c-.3.2-.4.5-.4 1 0 .2 0 .5.2.6.2.2.4.3.7.3.4 0 .8-.2 1.2-.4.3-.2.5-.7.6-1.4V48zm-1.3-1l.8-.3c.3 0 .5-.3.5-.6 0-.2 0-.5-.4-.6l-1-.2c-.5 0-.8.2-1 .4-.2.2-.3.4-.3.7h-2c0-.7.3-1.2.6-1.7.6-.7 1.5-1 3-1 .8 0 1.5 0 2.2.5.7.4 1 1 1 2v4.7c0 .2 0 .4.2.5l.3.2v.3H26v-.4l-.2-.5-1 .8c-.4.3-1 .4-1.5.4-.7 0-1.3-.2-1.8-.6-.5-.4-.7-1-.7-1.8 0-1 .4-1.7 1-2 .5-.4 1.2-.5 2-.6h.7zM33.7 43.6h.2v2h-.4-.3c-.8 0-1.4.4-1.7 1l-.2 1.3v3.7h-2v-8h2V45l.7-1c.5-.3 1-.4 1.6-.4"/>
    <g transform="translate(34 40)">
      <mask id="b" fill="#fff">
        <use xlink:href="#a"/>
      </mask>
      <path fill="#5F5F5C" d="M5.7 9.6c.4-.4.5-1 .5-1.8s0-1.5-.5-2c-.3-.3-.8-.5-1.4-.5-.6 0-1 .2-1.4.6-.4.3-.6 1-.6 1.8s.2 1.4.5 1.8c.3.4.7.7 1.3.7.6 0 1-.3 1.4-.7zm1.7 1.2c-.7.8-1.7 1.2-3 1.2-1.4 0-2.5-.4-3-1.2-.8-1-1-2-1-3 0-1.2.2-2.2 1-3 .5-1 1.6-1.3 3-1.3 1.3 0 2.3.4 3 1.3.7.8 1 1.8 1 3 0 1-.3 2-1 3zM9.6 2.8h2v-2h-2v2zm-1 10.5H9c.2 0 .4 0 .5-.2V4h2.2v8.8c0 .8 0 1.4-.5 1.8-.3.4-1 .6-1.8.6H9h-.4v-1.7z" mask="url(#b)"/>
    </g>
    <path fill="#5F5F5C" d="M51.8 48h-.4l-.6.2h-.5l-1 .4c-.3.2-.4.5-.4 1 0 .2 0 .5.2.6.2.2.4.3.7.3.4 0 .8-.2 1.2-.4.4-.2.6-.7.6-1.4V48zm-1.3-1l.8-.3c.3 0 .5-.3.5-.6 0-.2 0-.5-.4-.6l-1-.2c-.5 0-.8.2-1 .4-.2.2-.3.4-.3.7h-2c0-.7.3-1.2.6-1.7.6-.7 1.5-1 3-1 .8 0 1.5 0 2.2.5.7.4 1 1 1 2v4.7c0 .2 0 .4.2.5l.3.2v.3H52v-.4c0-.2 0-.3-.2-.5l-1 .8c-.4.3-1 .4-1.5.4-.7 0-1.3-.2-1.8-.6-.5-.4-.7-1-.7-1.8 0-1 .4-1.7 1-2 .6-.4 1.2-.5 2-.6h.7zM55.3 51.7h2.2v-2.2h-2.2M64 49.6c.4-.4.6-1 .6-1.8s-.2-1.5-.5-2c-.2-.3-.7-.5-1.3-.5-.6 0-1 .2-1.4.6-.4.3-.5 1-.5 1.8s0 1.4.5 1.8c.3.4.8.7 1.4.7.6 0 1-.3 1.4-.7zm1.8 1.2c-.7.8-1.7 1.2-3 1.2-1.5 0-2.5-.4-3.2-1.2-.7-1-1-2-1-3 0-1.2.3-2.2 1-3 .7-1 1.7-1.3 3-1.3 1.5 0 2.5.4 3.2 1.3.6.8 1 1.8 1 3 0 1-.4 2-1 3z"/>
    <g transform="translate(67 43)">
      <mask id="d" fill="#fff">
        <use xlink:href="#c"/>
      </mask>
      <path fill="#5F5F5C" d="M5.3.6h.2v2H5c-1 0-1.5.4-1.8 1-.2.2-.2.7-.2 1.3v3.7H1v-8h2V2l.7-1C4 .8 4.7.7 5.2.7M11 6.5c.3-.4.5-1 .5-1.8S11.3 3.4 11 3c-.3-.4-.7-.6-1.3-.6-.7 0-1.2.3-1.5 1L8 4.8c0 .4 0 .8.3 1.2.2.7.7 1 1.5 1 .5 0 1-.2 1.2-.5zM10.3.7c.5.3 1 .6 1.2 1.2V.6h2v7.6c0 1 0 1.8-.5 2.4-.6 1-1.7 1.3-3.4 1.3-1 0-1.8-.2-2.5-.6-.5-.4-1-1-1-1.8h2.3c0 .2.2.4.3.5.2.3.6.4 1 .4 1 0 1.4-.2 1.6-.7.2-.4.3-1 .3-1.7v-.5c-.2.4-.4.6-.7.8-.4.3-1 .5-1.6.5-1 0-1.8-.4-2.4-1-.6-.8-1-1.8-1-3s.3-2.2 1-3C7.2 1 8 .6 9 .6h1z" mask="url(#d)"/>
    </g>
    <path fill="#AA2C31" d="M69.7 31.2c-7.2 0-13-6-13-13 0-7.2 5.8-13 13-13 1.4 0 2.7.2 4 .6-.6 2-2.7 2.7-6.3 2.7 7.2 0 6.3 2.8-4.2 13 10.5-10.2 13.4-10.8 13.4-2.8 0-5 1-7 4.6-6.5 1 1.7 1.4 3.8 1.4 6 0 7-5.8 13-13 13m0-31C60 .2 52 8.2 52 18.2s8 18 18 18c9.8 0 17.8-8 17.8-18s-8-18-18-18"/>
  </g>
</svg>
